<svg width="53" height="60" viewBox="0 0 53 60" fill="none" xmlns="http://www.w3.org/2000/svg">
<path d="M52.5 9.375V15C52.5 20.1797 40.7461 24.375 26.25 24.375C11.7539 24.375 0 20.1797 0 15V9.375C0 4.19531 11.7539 0 26.25 0C40.7461 0 52.5 4.19531 52.5 9.375ZM46.0781 25.1602C48.5156 24.293 50.7539 23.1797 52.5 21.8086V33.75C52.5 38.9297 40.7461 43.125 26.25 43.125C11.7539 43.125 0 38.9297 0 33.75V21.8086C1.74609 23.1914 3.98438 24.293 6.42188 25.1602C11.6836 27.0352 18.6914 28.125 26.25 28.125C33.8086 28.125 40.8164 27.0352 46.0781 25.1602ZM0 40.5586C1.74609 41.9414 3.98438 43.043 6.42188 43.9102C11.6836 45.7852 18.6914 46.875 26.25 46.875C33.8086 46.875 40.8164 45.7852 46.0781 43.9102C48.5156 43.043 50.7539 41.9297 52.5 40.5586V50.625C52.5 55.8047 40.7461 60 26.25 60C11.7539 60 0 55.8047 0 50.625V40.5586Z" fill="white"/>
</svg>
