<svg id="Group_1_copy" data-name="Group 1 copy" xmlns="http://www.w3.org/2000/svg" width="1024" height="1024" viewBox="0 0 1024 1024">
  <defs>
    <style>
      .cls-1 {
        fill: none;
        stroke: #1ab2b1;
        stroke-width: 45px;
      }

      .cls-1, .cls-2 {
        fill-rule: evenodd;
      }

      .cls-2 {
        fill: #1ab2b1;
      }
    </style>
  </defs>
  <path id="Rectangle_1_copy" data-name="Rectangle 1 copy" class="cls-1" d="M512,945c17.577,0,289.314-193.317,294-235.108,4.682-41.753,60-605.854,60-605.854A13.033,13.033,0,0,0,852.972,91H512.335"/>
  <path class="cls-1" d="M512,945c-17.578,0-289.314-193.317-294-235.108-4.682-41.753-60-605.854-60-605.854A13.033,13.033,0,0,1,171.028,91H511.992"/>
  <path id="_" data-name="&lt;/&gt;" class="cls-2" d="M418.071,590.7V526.412L317.29,484.605l1.757,3.162v-7.378l-1.757,3.162,100.781-41.807V377.1l-158.5,76.237v61.482ZM522.215,316.322L451.9,629.7h49.805L572.02,316.322h-49.8ZM764.348,453.337L605.852,377.1v64.644l101.074,41.807-1.757-3.162v7.378l1.757-3.162L605.852,526.412V590.7l158.5-75.885V453.337Z"/>
</svg>
