<svg xmlns="http://www.w3.org/2000/svg" width="146" height="142" viewBox="0 0 146 142" fill="black">
<path d="M2.76667 5.43333C4.29465 5.43333 5.53333 4.21704 5.53333 2.71667C5.53333 1.21629 4.29465 0 2.76667 0C1.23868 0 0 1.21629 0 2.71667C0 4.21704 1.23868 5.43333 2.76667 5.43333Z"/>
<path d="M30.6906 5.43333C32.2186 5.43333 33.4573 4.21704 33.4573 2.71667C33.4573 1.21629 32.2186 0 30.6906 0C29.1626 0 27.924 1.21629 27.924 2.71667C27.924 4.21704 29.1626 5.43333 30.6906 5.43333Z"/>
<path d="M58.6148 5.43333C60.1428 5.43333 61.3815 4.21704 61.3815 2.71667C61.3815 1.21629 60.1428 0 58.6148 0C57.0868 0 55.8481 1.21629 55.8481 2.71667C55.8481 4.21704 57.0868 5.43333 58.6148 5.43333Z"/>
<path d="M86.5389 5.43333C88.0669 5.43333 89.3055 4.21704 89.3055 2.71667C89.3055 1.21629 88.0669 0 86.5389 0C85.0109 0 83.7722 1.21629 83.7722 2.71667C83.7722 4.21704 85.0109 5.43333 86.5389 5.43333Z"/>
<path d="M114.463 5.43333C115.991 5.43333 117.23 4.21704 117.23 2.71667C117.23 1.21629 115.991 0 114.463 0C112.935 0 111.696 1.21629 111.696 2.71667C111.696 4.21704 112.935 5.43333 114.463 5.43333Z"/>
<path d="M142.387 5.43333C143.915 5.43333 145.154 4.21704 145.154 2.71667C145.154 1.21629 143.915 0 142.387 0C140.859 0 139.62 1.21629 139.62 2.71667C139.62 4.21704 140.859 5.43333 142.387 5.43333Z"/>
<path d="M2.76667 32.6001C4.29465 32.6001 5.53333 31.3838 5.53333 29.8834C5.53333 28.383 4.29465 27.1667 2.76667 27.1667C1.23868 27.1667 0 28.383 0 29.8834C0 31.3838 1.23868 32.6001 2.76667 32.6001Z"/>
<path d="M30.6906 32.6001C32.2186 32.6001 33.4573 31.3838 33.4573 29.8834C33.4573 28.383 32.2186 27.1667 30.6906 27.1667C29.1626 27.1667 27.924 28.383 27.924 29.8834C27.924 31.3838 29.1626 32.6001 30.6906 32.6001Z"/>
<path d="M58.6148 32.6001C60.1428 32.6001 61.3815 31.3838 61.3815 29.8834C61.3815 28.383 60.1428 27.1667 58.6148 27.1667C57.0868 27.1667 55.8481 28.383 55.8481 29.8834C55.8481 31.3838 57.0868 32.6001 58.6148 32.6001Z"/>
<path d="M86.5389 32.6001C88.0669 32.6001 89.3055 31.3838 89.3055 29.8834C89.3055 28.383 88.0669 27.1667 86.5389 27.1667C85.0109 27.1667 83.7722 28.383 83.7722 29.8834C83.7722 31.3838 85.0109 32.6001 86.5389 32.6001Z"/>
<path d="M114.463 32.6001C115.991 32.6001 117.23 31.3838 117.23 29.8834C117.23 28.383 115.991 27.1667 114.463 27.1667C112.935 27.1667 111.696 28.383 111.696 29.8834C111.696 31.3838 112.935 32.6001 114.463 32.6001Z"/>
<path d="M142.387 32.6001C143.915 32.6001 145.154 31.3838 145.154 29.8834C145.154 28.383 143.915 27.1667 142.387 27.1667C140.859 27.1667 139.62 28.383 139.62 29.8834C139.62 31.3838 140.859 32.6001 142.387 32.6001Z"/>
<path d="M2.76667 59.7666C4.29465 59.7666 5.53333 58.5503 5.53333 57.0499C5.53333 55.5495 4.29465 54.3333 2.76667 54.3333C1.23868 54.3333 0 55.5495 0 57.0499C0 58.5503 1.23868 59.7666 2.76667 59.7666Z"/>
<path d="M30.6906 59.7666C32.2186 59.7666 33.4573 58.5503 33.4573 57.0499C33.4573 55.5495 32.2186 54.3333 30.6906 54.3333C29.1626 54.3333 27.924 55.5495 27.924 57.0499C27.924 58.5503 29.1626 59.7666 30.6906 59.7666Z"/>
<path d="M58.6148 59.7666C60.1428 59.7666 61.3815 58.5503 61.3815 57.0499C61.3815 55.5495 60.1428 54.3333 58.6148 54.3333C57.0868 54.3333 55.8481 55.5495 55.8481 57.0499C55.8481 58.5503 57.0868 59.7666 58.6148 59.7666Z"/>
<path d="M86.5389 59.7666C88.0669 59.7666 89.3055 58.5503 89.3055 57.0499C89.3055 55.5495 88.0669 54.3333 86.5389 54.3333C85.0109 54.3333 83.7722 55.5495 83.7722 57.0499C83.7722 58.5503 85.0109 59.7666 86.5389 59.7666Z"/>
<path d="M114.463 59.7666C115.991 59.7666 117.23 58.5503 117.23 57.0499C117.23 55.5495 115.991 54.3333 114.463 54.3333C112.935 54.3333 111.696 55.5495 111.696 57.0499C111.696 58.5503 112.935 59.7666 114.463 59.7666Z"/>
<path d="M142.387 59.7666C143.915 59.7666 145.154 58.5503 145.154 57.0499C145.154 55.5495 143.915 54.3333 142.387 54.3333C140.859 54.3333 139.62 55.5495 139.62 57.0499C139.62 58.5503 140.859 59.7666 142.387 59.7666Z"/>
<path d="M2.76667 86.9333C4.29465 86.9333 5.53333 85.717 5.53333 84.2167C5.53333 82.7163 4.29465 81.5 2.76667 81.5C1.23868 81.5 0 82.7163 0 84.2167C0 85.717 1.23868 86.9333 2.76667 86.9333Z"/>
<path d="M30.6906 86.9333C32.2186 86.9333 33.4573 85.717 33.4573 84.2167C33.4573 82.7163 32.2186 81.5 30.6906 81.5C29.1626 81.5 27.924 82.7163 27.924 84.2167C27.924 85.717 29.1626 86.9333 30.6906 86.9333Z"/>
<path d="M58.6148 86.9333C60.1428 86.9333 61.3815 85.717 61.3815 84.2167C61.3815 82.7163 60.1428 81.5 58.6148 81.5C57.0868 81.5 55.8481 82.7163 55.8481 84.2167C55.8481 85.717 57.0868 86.9333 58.6148 86.9333Z"/>
<path d="M86.5389 86.9333C88.0669 86.9333 89.3055 85.717 89.3055 84.2167C89.3055 82.7163 88.0669 81.5 86.5389 81.5C85.0109 81.5 83.7722 82.7163 83.7722 84.2167C83.7722 85.717 85.0109 86.9333 86.5389 86.9333Z"/>
<path d="M114.463 86.9333C115.991 86.9333 117.23 85.717 117.23 84.2167C117.23 82.7163 115.991 81.5 114.463 81.5C112.935 81.5 111.696 82.7163 111.696 84.2167C111.696 85.717 112.935 86.9333 114.463 86.9333Z"/>
<path d="M142.387 86.9333C143.915 86.9333 145.154 85.717 145.154 84.2167C145.154 82.7163 143.915 81.5 142.387 81.5C140.859 81.5 139.62 82.7163 139.62 84.2167C139.62 85.717 140.859 86.9333 142.387 86.9333Z"/>
<path d="M2.76667 114.1C4.29465 114.1 5.53333 112.884 5.53333 111.383C5.53333 109.883 4.29465 108.667 2.76667 108.667C1.23868 108.667 0 109.883 0 111.383C0 112.884 1.23868 114.1 2.76667 114.1Z"/>
<path d="M30.6906 114.1C32.2186 114.1 33.4573 112.884 33.4573 111.383C33.4573 109.883 32.2186 108.667 30.6906 108.667C29.1626 108.667 27.924 109.883 27.924 111.383C27.924 112.884 29.1626 114.1 30.6906 114.1Z"/>
<path d="M58.6148 114.1C60.1428 114.1 61.3815 112.884 61.3815 111.383C61.3815 109.883 60.1428 108.667 58.6148 108.667C57.0868 108.667 55.8481 109.883 55.8481 111.383C55.8481 112.884 57.0868 114.1 58.6148 114.1Z"/>
<path d="M86.5389 114.1C88.0669 114.1 89.3055 112.884 89.3055 111.383C89.3055 109.883 88.0669 108.667 86.5389 108.667C85.0109 108.667 83.7722 109.883 83.7722 111.383C83.7722 112.884 85.0109 114.1 86.5389 114.1Z"/>
<path d="M114.463 114.1C115.991 114.1 117.23 112.884 117.23 111.383C117.23 109.883 115.991 108.667 114.463 108.667C112.935 108.667 111.696 109.883 111.696 111.383C111.696 112.884 112.935 114.1 114.463 114.1Z"/>
<path d="M142.387 114.1C143.915 114.1 145.154 112.884 145.154 111.383C145.154 109.883 143.915 108.667 142.387 108.667C140.859 108.667 139.62 109.883 139.62 111.383C139.62 112.884 140.859 114.1 142.387 114.1Z"/>
<path d="M2.76667 141.267C4.29465 141.267 5.53333 140.05 5.53333 138.55C5.53333 137.05 4.29465 135.833 2.76667 135.833C1.23868 135.833 0 137.05 0 138.55C0 140.05 1.23868 141.267 2.76667 141.267Z"/>
<path d="M30.6906 141.267C32.2186 141.267 33.4573 140.05 33.4573 138.55C33.4573 137.05 32.2186 135.833 30.6906 135.833C29.1626 135.833 27.924 137.05 27.924 138.55C27.924 140.05 29.1626 141.267 30.6906 141.267Z"/>
<path d="M58.6148 141.267C60.1428 141.267 61.3815 140.05 61.3815 138.55C61.3815 137.05 60.1428 135.833 58.6148 135.833C57.0868 135.833 55.8481 137.05 55.8481 138.55C55.8481 140.05 57.0868 141.267 58.6148 141.267Z"/>
<path d="M86.5389 141.267C88.0669 141.267 89.3055 140.05 89.3055 138.55C89.3055 137.05 88.0669 135.833 86.5389 135.833C85.0109 135.833 83.7722 137.05 83.7722 138.55C83.7722 140.05 85.0109 141.267 86.5389 141.267Z"/>
<path d="M114.463 141.267C115.991 141.267 117.23 140.05 117.23 138.55C117.23 137.05 115.991 135.833 114.463 135.833C112.935 135.833 111.696 137.05 111.696 138.55C111.696 140.05 112.935 141.267 114.463 141.267Z"/>
<path d="M142.387 141.267C143.915 141.267 145.154 140.05 145.154 138.55C145.154 137.05 143.915 135.833 142.387 135.833C140.859 135.833 139.62 137.05 139.62 138.55C139.62 140.05 140.859 141.267 142.387 141.267Z"/>
</svg>